# File created by Blade
# Date/Time:  Wed Apr 08 17:04:22 2015
# Frame Rate: 120.000 fps
#------------------------------------------------------
:FULLY-SPECIFIED
:DEGREES
1502
root 3.226318 35.803738 5.396530 -130.269623 -80.483327 161.000566
Spine -33.455741 -13.972052 1.379436
Head 54.159406 -13.221019 -20.789446
LeftShoulder 11.668456 3.640700 25.161272
LeftArm 106.128228 41.734439 -36.049895
LeftForeArm 8.464235 -0.000000 97.252762
LeftHand -8.088261 0.000000 -14.363282
LeftHandThumb1 -26.253704 0.000000 33.147579
RightShoulder -22.312131 -74.396658 -10.666650
RightArm 37.046390 -24.152428 35.490031
RightForeArm 46.170540 -0.000000 109.130544
RightHand -2.915325 -0.000000 37.114169
RightHandThumb1 -24.326973 -0.000000 -32.862282
LeftUpLeg -35.338790 8.744224 -7.797402
LeftLeg 22.238218 -0.000000 -0.000000
LeftFoot -18.820128 9.790063 -14.730178
LeftToeBase 7.910452 -0.000000 -0.000000
RightUpLeg -36.214813 -8.686686 -12.525462
RightLeg 17.134047 -0.000000 -0.000000
RightFoot -11.043495 3.323598 21.606255
RightToeBase 13.288941 -0.000000 -0.000000
1503
root 3.221554 35.804884 5.398268 -129.902818 -80.626828 160.633062
Spine -33.523523 -13.949908 1.433260
Head 54.137473 -13.206159 -20.760137
LeftShoulder 11.669055 3.551341 25.187726
LeftArm 106.024016 41.770528 -36.176795
LeftForeArm 8.497328 -0.000000 97.276181
LeftHand -8.044603 -0.000000 -14.409109
LeftHandThumb1 -26.253704 0.000000 33.147579
RightShoulder -22.041127 -74.288497 -10.956992
RightArm 36.998777 -23.657026 35.726953
RightForeArm 46.876831 0.000000 109.368151
RightHand -2.641252 -0.000000 36.714742
RightHandThumb1 -24.326973 -0.000000 -32.862282
LeftUpLeg -35.343932 8.701275 -7.773330
LeftLeg 22.242326 -0.000000 -0.000000
LeftFoot -18.772565 9.720538 -14.660956
LeftToeBase 7.911089 -0.000000 -0.000000
RightUpLeg -36.148260 -8.736267 -12.505733
RightLeg 17.118090 -0.000000 -0.000000
RightFoot -11.089561 3.227790 21.606815
RightToeBase 13.259307 -0.000000 -0.000000
1504
root 3.215189 35.806501 5.399667 -129.492648 -80.723634 160.225694
Spine -33.592564 -13.905644 1.431406
Head 54.111830 -13.216107 -20.727771
LeftShoulder 11.643426 3.522424 25.213915
LeftArm 106.009143 41.757001 -36.216289
LeftForeArm 8.565452 -0.000000 97.316250
LeftHand -8.024122 -0.000000 -14.336657
LeftHandThumb1 -26.253704 0.000000 33.147579
RightShoulder -21.833604 -74.157761 -11.176936
RightArm 36.963226 -23.215079 35.955726
RightForeArm 47.675486 -0.000000 109.579413
RightHand -2.512988 0.000000 36.569240
RightHandThumb1 -24.326973 -0.000000 -32.862282
LeftUpLeg -35.335416 8.668388 -7.780275
LeftLeg 22.218956 -0.000000 -0.000000
LeftFoot -18.727600 9.644447 -14.640950
LeftToeBase 7.892865 -0.000000 -0.000000
RightUpLeg -36.099944 -8.755134 -12.527130
RightLeg 17.119797 -0.000000 -0.000000
RightFoot -11.149663 3.139655 21.637510
RightToeBase 13.283553 -0.000000 -0.000000
1505
root 3.209943 35.808030 5.399781 -129.059629 -80.841003 159.799087
Spine -33.656176 -13.844258 1.430219
Head 54.087479 -13.240580 -20.701325
LeftShoulder 11.645075 3.515121 25.234390
LeftArm 106.014747 41.707903 -36.241101
LeftForeArm 8.759563 -0.000000 97.386876
LeftHand -8.050813 0.000000 -14.294001
LeftHandThumb1 -26.253704 0.000000 33.147579
RightShoulder -21.719659 -74.028964 -11.305761
RightArm 36.977410 -22.832479 36.144209
RightForeArm 48.597157 -0.000000 109.835074
RightHand -2.438310 -0.000000 36.279729
RightHandThumb1 -24.326973 -0.000000 -32.862282
LeftUpLeg -35.339302 8.626401 -7.771352
LeftLeg 22.210900 -0.000000 -0.000000
LeftFoot -18.682116 9.562532 -14.612774
LeftToeBase 7.877001 -0.000000 -0.000000
RightUpLeg -36.047326 -8.805373 -12.520620
RightLeg 17.109247 -0.000000 -0.000000
RightFoot -11.208555 3.060733 21.652832
RightToeBase 13.296404 -0.000000 -0.000000
1506
root 3.205455 35.809958 5.397695 -128.531899 -80.987893 159.307682
Spine -33.761419 -13.824930 1.466813
Head 54.041494 -13.258283 -20.682294
LeftShoulder 11.635427 3.491348 25.246599
LeftArm 105.979449 41.697564 -36.302409
LeftForeArm 8.898217 -0.000000 97.436896
LeftHand -8.116874 -0.000000 -14.144386
LeftHandThumb1 -26.253704 0.000000 33.147579
RightShoulder -21.439311 -73.872641 -11.596353
RightArm 36.966871 -22.551466 36.332309
RightForeArm 49.687118 -0.000000 110.104751
RightHand -2.186190 -0.000000 36.048480
RightHandThumb1 -24.326973 -0.000000 -32.862282
LeftUpLeg -35.378233 8.541535 -7.739122
LeftLeg 22.208053 -0.000000 -0.000000
LeftFoot -18.625321 9.496132 -14.593114
LeftToeBase 7.868730 -0.000000 -0.000000
RightUpLeg -36.013117 -8.874755 -12.493427
RightLeg 17.092986 -0.000000 -0.000000
RightFoot -11.257824 2.963204 21.653876
RightToeBase 13.291192 -0.000000 -0.000000
